# xmcd
#
# Track frame offsets: 
#        150
#        20715
#        39612
#        63205
#        80412
#        94215
#        112777
#        132655
#        155940
#        174532
#        187360
#
# Disc length: 2751 seconds
#
# Revision: 0
# Processed by: cddbd v1.5.1PL2 Copyright (c) Steve Scherf et al.
# Submitted via: ExactAudioCopy v0.95b3
#
DISCID=9c0abd0b
DTITLE=Liivi - K.M.K.V.P.
DYEAR=1996
DGENRE=Hard Rock
TTITLE0=Kaadaa Briinishkjaa Dienaa
TTITLE1=Es Karaajos Tavaa Bizee
TTITLE2=Zelta Sirds
TTITLE3=Meitene
TTITLE4=Var Jau Buut...
TTITLE5=Kas Mums Ko Var Padariit (Pusnakts Balaade)
TTITLE6=Kas Tev Par Dalju
TTITLE7=Tev Buus Jaamaksaa
TTITLE8=Greeks Paliek
TTITLE9='Dzelzsgriezeejs 2
TTITLE10=Lai Notiek Viss
EXTD=
EXTT0=
EXTT1=
EXTT2=
EXTT3=
EXTT4=
EXTT5=
EXTT6=
EXTT7=
EXTT8=
EXTT9=
EXTT10=
PLAYORDER=
